<svg>
    <g class="scalable" id="v-439" transform="scale(1,1)"><rect class="body rect-table-tools" id="v-443" fill="transparent" width="75" height="50" stroke="#E68284" stroke-width="0"></rect><circle style="fill:none; " class="join_circle1" id="v-449" stroke="#E68284" cx="25" cy="25" r="25" stroke-width="2"></circle><circle style="fill:none;" class="join_circle2" id="v-450" cx="50" cy="25" r="25" stroke="#E68284" stroke-width="2"></circle><line class="join_line1" id="v-451" stroke="#E68284" x1="10" y1="5" x2="40" y2="5" stroke-width="1"></line><line class="join_line2" id="v-452" stroke="#E68284" x1="5" y1="10" x2="45" y2="10" stroke-width="1"></line><line class="join_line3" id="v-453" stroke="#E68284" x1="2.0871215252208017" y1="15" x2="47.9128784747792" y2="15" stroke-width="1"></line><line class="join_line4" id="v-454" stroke="#E68284" x1="0.5051025721682194" y1="20" x2="49.49489742783178" y2="20" stroke-width="1"></line><line class="join_line5" id="v-455" stroke="#E68284" x1="0" y1="25" x2="50" y2="25" stroke-width="1"></line><line class="join_line6" id="v-456" stroke="#E68284" x1="0.5051025721682194" y1="30" x2="49.49489742783178" y2="30" stroke-width="1"></line><line class="join_line7" id="v-457" stroke="#E68284" x1="2.0871215252208017" y1="35" x2="47.9128784747792" y2="35" stroke-width="1"></line><line class="join_line8" id="v-458" stroke="#E68284" x1="5" y1="40" x2="45" y2="40" stroke-width="1"></line><line class="join_line9" id="v-459" stroke="#E68284" x1="10" y1="45" x2="40" y2="45" stroke-width="1"></line><line class="join_line10" id="v-460" stroke="#E68284" x1="25" y1="50" x2="25" y2="50" stroke-width="1"></line><line class="join_line11" id="v-462" stroke="#E68284" x1="35" y1="5" x2="65" y2="5" stroke-width="1"></line><line class="join_line12" id="v-463" stroke="#E68284" x1="30" y1="10" x2="70" y2="10" stroke-width="1"></line><line class="join_line13" id="v-464" stroke="#E68284" x1="27.0871215252208" y1="15" x2="72.9128784747792" y2="15" stroke-width="1"></line><line class="join_line14" id="v-465" stroke="#E68284" x1="25.50510257216822" y1="20" x2="74.49489742783177" y2="20" stroke-width="1"></line><line class="join_line15" id="v-466" stroke="#E68284" x1="25" y1="25" x2="75" y2="25" stroke-width="1"></line><line class="join_line16" id="v-467" stroke="#E68284" x1="25.50510257216822" y1="30" x2="74.49489742783177" y2="30" stroke-width="1"></line><line class="join_line17" id="v-468" stroke="#E68284" x1="27.0871215252208" y1="35" x2="72.9128784747792" y2="35" stroke-width="1"></line><line class="join_line18" id="v-469" stroke="#E68284" x1="30" y1="40" x2="70" y2="40" stroke-width="1"></line><line class="join_line19" id="v-470" stroke="#E68284" x1="35" y1="45" x2="65" y2="45" stroke-width="1"></line><line class="join_line20" id="v-471" stroke="#E68284" x1="50" y1="50" x2="50" y2="50" stroke-width="1"></line><line class="join_line10" id="v-461" stroke="#E68284" x1="25" y1="50" x2="25" y2="50" stroke-width="1"></line></g>
</svg>