<svg>
    <g class="scalable" id="v-726" transform="scale(1,1)"><rect class="body rect-table-tools" id="v-730" fill="transparent" width="50" height="75" stroke="#425DCD" stroke-width="0"></rect><circle style="fill:none; " class="join_circle1" id="v-736" stroke="#425DCD" cx="25" cy="25" r="25" stroke-width="2"></circle><circle style="fill:none;" class="join_circle2" id="v-737" cx="25" cy="50" r="25" stroke="#425DCD" stroke-width="2"></circle><line class="join_line1" id="v-738" stroke="#425DCD" x1="10" y1="5" x2="40" y2="5" stroke-width="1"></line><line class="join_line2" id="v-739" stroke="#425DCD" x1="5" y1="10" x2="45" y2="10" stroke-width="1"></line><line class="join_line3" id="v-740" stroke="#425DCD" x1="2.0871215252208017" y1="15" x2="47.9128784747792" y2="15" stroke-width="1"></line><line class="join_line4" id="v-741" stroke="#425DCD" x1="0.5051025721682194" y1="20" x2="49.49489742783178" y2="20" stroke-width="1"></line><line class="join_line5" id="v-742" stroke="#425DCD" x1="0" y1="25" x2="50" y2="25" stroke-width="1"></line><line class="join_line6" id="v-743" stroke="#425DCD" x1="0.5051025721682194" y1="30" x2="49.49489742783178" y2="30" stroke-width="1"></line><line class="join_line7" id="v-744" stroke="#425DCD" x1="5" y1="35" x2="45" y2="35" stroke-width="1"></line><line class="join_line8" id="v-745" stroke="#425DCD" x1="2.0871215252208017" y1="40" x2="47.9128784747792" y2="40" stroke-width="1"></line><line class="join_line9" id="v-746" stroke="#425DCD" x1="0.5051025721682194" y1="45" x2="49.49489742783178" y2="45" stroke-width="1"></line><line class="join_line10" id="v-747" stroke="#425DCD" x1="0" y1="50" x2="50" y2="50" stroke-width="1"></line><line class="join_line11" id="v-749" stroke="#425DCD" x1="0.5051025721682194" y1="55" x2="49.49489742783178" y2="55" stroke-width="1"></line><line class="join_line12" id="v-750" stroke="#425DCD" x1="2.0871215252208017" y1="60" x2="47.9128784747792" y2="60" stroke-width="1"></line><line class="join_line13" id="v-751" stroke="#425DCD" x1="5" y1="65" x2="45" y2="65" stroke-width="1"></line><line class="join_line14" id="v-752" stroke="#425DCD" x1="10" y1="70" x2="40" y2="70" stroke-width="1"></line><line class="join_line15" id="v-753" stroke="#425DCD" x1="25" y1="75" x2="25" y2="75" stroke-width="1"></line><line class="join_line16"></line><line class="join_line17"></line><line class="join_line18"></line><line class="join_line19"></line><line class="join_line20"></line><line class="join_line10" id="v-748" stroke="#425DCD" x1="0" y1="50" x2="50" y2="50" stroke-width="1"></line></g>
</svg>